<svg width="41" height="41" viewBox="0 0 41 41" fill="none" xmlns="http://www.w3.org/2000/svg">
<path d="M20.5 2.5625C31.823 2.5625 41 10.0178 41 19.2188C41 23.1906 39.2863 26.8262 36.4355 29.685C37.4365 33.7209 40.7838 37.3164 40.8238 37.3564C41 37.5406 41.048 37.8129 40.9439 38.0531C40.8398 38.2934 40.6156 38.4375 40.3594 38.4375C35.0502 38.4375 31.0703 35.891 29.1004 34.3215C26.4818 35.3064 23.575 35.875 20.5 35.875C9.17695 35.875 0 28.4197 0 19.2188C0 10.0178 9.17695 2.5625 20.5 2.5625ZM30.75 21.7812C32.1674 21.7812 33.3125 20.6361 33.3125 19.2188C33.3125 17.8014 32.1674 16.6562 30.75 16.6562C29.3326 16.6562 28.1875 17.8014 28.1875 19.2188C28.1875 20.6361 29.3326 21.7812 30.75 21.7812ZM20.5 21.7812C21.9174 21.7812 23.0625 20.6361 23.0625 19.2188C23.0625 17.8014 21.9174 16.6562 20.5 16.6562C19.0826 16.6562 17.9375 17.8014 17.9375 19.2188C17.9375 20.6361 19.0826 21.7812 20.5 21.7812ZM10.25 21.7812C11.6674 21.7812 12.8125 20.6361 12.8125 19.2188C12.8125 17.8014 11.6674 16.6562 10.25 16.6562C8.83262 16.6562 7.6875 17.8014 7.6875 19.2188C7.6875 20.6361 8.83262 21.7812 10.25 21.7812Z" fill="#4B9EDA"/>
</svg>
